<svg width="14" height="12" viewBox="0 0 14 12" fill="none" xmlns="http://www.w3.org/2000/svg">
<path d="M12.5213 0H1.04345C0.766707 0 0.501302 0.109934 0.305618 0.305618C0.109934 0.501302 1.3384e-07 0.766707 1.3384e-07 1.04345V11.4779C-6.35912e-05 11.5669 0.0226297 11.6544 0.0659228 11.7321C0.109216 11.8099 0.17167 11.8752 0.247349 11.922C0.323028 11.9688 0.409417 11.9955 0.498304 11.9995C0.587191 12.0035 0.675623 11.9847 0.755194 11.9448L2.60861 11.0175L4.46203 11.9448C4.53452 11.9811 4.61445 12 4.69551 12C4.77656 12 4.85649 11.9811 4.92898 11.9448L6.7824 11.0175L8.63582 11.9448C8.7083 11.9811 8.78824 12 8.86929 12C8.95034 12 9.03028 11.9811 9.10276 11.9448L10.9562 11.0175L12.8096 11.9448C12.8892 11.9847 12.9776 12.0035 13.0665 11.9995C13.1554 11.9955 13.2418 11.9688 13.3174 11.922C13.3931 11.8752 13.4556 11.8099 13.4989 11.7321C13.5422 11.6544 13.5649 11.5669 13.5648 11.4779V1.04345C13.5648 0.766707 13.4549 0.501302 13.2592 0.305618C13.0635 0.109934 12.7981 0 12.5213 0ZM12.5213 10.634L11.1897 9.96751C11.1172 9.93124 11.0372 9.91236 10.9562 9.91236C10.8751 9.91236 10.7952 9.93124 10.7227 9.96751L8.86929 10.8949L7.01587 9.96751C6.94339 9.93124 6.86345 9.91236 6.7824 9.91236C6.70135 9.91236 6.62141 9.93124 6.54893 9.96751L4.69551 10.8949L2.84209 9.96751C2.7696 9.93124 2.68967 9.91236 2.60861 9.91236C2.52756 9.91236 2.44763 9.93124 2.37514 9.96751L1.04345 10.634V1.04345H12.5213V10.634ZM2.37514 8.29278C2.43645 8.32349 2.50322 8.34181 2.57161 8.34669C2.64001 8.35157 2.7087 8.34293 2.77375 8.32124C2.8388 8.29956 2.89894 8.26526 2.95072 8.22032C3.00251 8.17538 3.04493 8.12066 3.07556 8.05931L3.4525 7.30412H5.93851L6.31545 8.05931C6.34611 8.12063 6.38855 8.17531 6.44034 8.22023C6.49214 8.26515 6.55227 8.29943 6.61731 8.32111C6.68235 8.34279 6.75102 8.35145 6.81941 8.34659C6.88779 8.34173 6.95455 8.32344 7.01587 8.29278C7.07719 8.26213 7.13187 8.21969 7.17679 8.1679C7.22171 8.1161 7.25598 8.05597 7.27766 7.99093C7.29934 7.92589 7.308 7.85722 7.30314 7.78883C7.29828 7.72045 7.28 7.65369 7.24934 7.59237L5.16245 3.41859C5.11918 3.33177 5.05256 3.25873 4.97008 3.20768C4.88759 3.15663 4.79251 3.12959 4.69551 3.12959C4.5985 3.12959 4.50342 3.15663 4.42094 3.20768C4.33845 3.25873 4.27183 3.33177 4.22856 3.41859L2.14167 7.59237C2.11097 7.65368 2.09265 7.72045 2.08777 7.78884C2.08288 7.85724 2.09153 7.92592 2.11322 7.99098C2.1349 8.05603 2.16919 8.11617 2.21414 8.16795C2.25908 8.21974 2.31379 8.26216 2.37514 8.29278ZM4.69551 4.81876L5.41679 6.26067H3.97422L4.69551 4.81876ZM7.30412 5.73895C7.30412 5.60058 7.35909 5.46788 7.45693 5.37004C7.55477 5.2722 7.68747 5.21723 7.82584 5.21723H8.86929V4.17378C8.86929 4.03541 8.92426 3.90271 9.0221 3.80487C9.11994 3.70703 9.25264 3.65206 9.39101 3.65206C9.52938 3.65206 9.66208 3.70703 9.75993 3.80487C9.85777 3.90271 9.91273 4.03541 9.91273 4.17378V5.21723H10.9562C11.0945 5.21723 11.2273 5.2722 11.3251 5.37004C11.4229 5.46788 11.4779 5.60058 11.4779 5.73895C11.4779 5.87732 11.4229 6.01002 11.3251 6.10787C11.2273 6.20571 11.0945 6.26067 10.9562 6.26067H9.91273V7.30412C9.91273 7.44249 9.85777 7.57519 9.75993 7.67303C9.66208 7.77088 9.52938 7.82584 9.39101 7.82584C9.25264 7.82584 9.11994 7.77088 9.0221 7.67303C8.92426 7.57519 8.86929 7.44249 8.86929 7.30412V6.26067H7.82584C7.68747 6.26067 7.55477 6.20571 7.45693 6.10787C7.35909 6.01002 7.30412 5.87732 7.30412 5.73895Z" fill="#4F4F4F"/>
</svg>
