<svg width="299" height="290" viewBox="0 0 299 290" fill="none" xmlns="http://www.w3.org/2000/svg">
<rect width="299" height="290" rx="70" fill="#28820C"/>
<path d="M149.5 66.5L37 108.615L149.5 164.766L203.082 138.022L152.816 122.68C151.781 123.176 150.648 123.434 149.5 123.437C147.456 123.437 145.495 122.626 144.049 121.183C142.604 119.74 141.792 117.783 141.792 115.742C141.792 113.701 142.604 111.744 144.049 110.301C145.495 108.858 147.456 108.047 149.5 108.047L148.225 112.184L157.156 114.927L157.16 114.954L170.338 118.977L245.372 142.022V147.863C244.334 148.568 243.485 149.515 242.897 150.623C242.309 151.73 242.001 152.963 242 154.216C242.001 155.498 242.323 156.759 242.937 157.885C243.55 159.011 244.436 159.966 245.513 160.664C242.005 173.901 242 203.935 242 215.774C249.708 220.774 249.708 220.956 257.416 215.774C257.416 203.937 257.413 173.908 253.904 160.668C254.982 159.97 255.868 159.014 256.481 157.887C257.094 156.76 257.416 155.498 257.416 154.216C257.416 152.962 257.109 151.726 256.521 150.618C255.933 149.509 255.083 148.56 254.044 147.855V135.63L225.464 126.851L262 108.615L149.5 66.5ZM83.7977 143.155L77.4754 181.023C90.0857 182.669 105.17 189.986 119.038 198.638C126.924 203.558 134.311 208.96 140.311 214.2C143.978 217.403 147.044 220.476 149.5 223.5C151.956 220.476 155.022 217.403 158.689 214.2C164.689 208.96 172.075 203.558 179.962 198.638C193.83 189.986 208.914 182.669 221.525 181.023L215.201 143.155H212.19L149.5 174.445L86.8087 143.155H83.7977Z" fill="white"/>
</svg>
