<svg width="1247" height="290" viewBox="0 0 1247 290" fill="none" xmlns="http://www.w3.org/2000/svg">
<rect width="299" height="290" rx="70" fill="#2A9F06"/>
<path d="M149.5 66.5L37 108.615L149.5 164.766L203.082 138.022L152.816 122.68C151.781 123.176 150.648 123.434 149.5 123.437C147.456 123.437 145.495 122.626 144.049 121.183C142.604 119.74 141.792 117.783 141.792 115.742C141.792 113.701 142.604 111.744 144.049 110.301C145.495 108.858 147.456 108.047 149.5 108.047L148.225 112.184L157.156 114.927L157.16 114.954L170.338 118.977L245.372 142.022V147.863C244.334 148.568 243.485 149.515 242.897 150.623C242.309 151.73 242.001 152.963 242 154.216C242.001 155.498 242.323 156.759 242.937 157.885C243.55 159.011 244.436 159.966 245.513 160.664C242.005 173.901 242 203.935 242 215.774C249.708 220.774 249.708 220.956 257.416 215.774C257.416 203.937 257.413 173.908 253.904 160.668C254.982 159.97 255.868 159.014 256.481 157.887C257.094 156.76 257.416 155.498 257.416 154.216C257.416 152.962 257.109 151.726 256.521 150.618C255.933 149.509 255.083 148.56 254.044 147.855V135.63L225.464 126.851L262 108.615L149.5 66.5ZM83.7977 143.155L77.4754 181.023C90.0857 182.669 105.17 189.986 119.038 198.638C126.924 203.558 134.311 208.96 140.311 214.2C143.978 217.403 147.044 220.476 149.5 223.5C151.956 220.476 155.022 217.403 158.689 214.2C164.689 208.96 172.075 203.558 179.962 198.638C193.83 189.986 208.914 182.669 221.525 181.023L215.201 143.155H212.19L149.5 174.445L86.8087 143.155H83.7977Z" fill="white"/>
<path d="M358.614 218V72.5455H446.398V88.1705H376.227V137.318H441.852V152.943H376.227V202.375H447.534V218H358.614ZM517.065 220.273C507.974 220.273 499.949 217.976 492.989 213.384C486.028 208.743 480.583 202.209 476.653 193.781C472.723 185.306 470.759 175.292 470.759 163.739C470.759 152.28 472.723 142.337 476.653 133.909C480.583 125.481 486.052 118.971 493.06 114.378C500.067 109.785 508.164 107.489 517.349 107.489C524.452 107.489 530.063 108.672 534.182 111.04C538.348 113.36 541.521 116.011 543.699 118.994C545.924 121.93 547.652 124.345 548.884 126.239H550.304V72.5455H567.065V218H550.872V201.239H548.884C547.652 203.227 545.901 205.737 543.628 208.767C541.355 211.75 538.112 214.425 533.898 216.793C529.684 219.113 524.073 220.273 517.065 220.273ZM519.338 205.216C526.062 205.216 531.743 203.464 536.384 199.96C541.024 196.409 544.551 191.509 546.966 185.259C549.381 178.961 550.588 171.693 550.588 163.455C550.588 155.311 549.404 148.185 547.037 142.077C544.67 135.921 541.166 131.139 536.526 127.73C531.885 124.274 526.156 122.545 519.338 122.545C512.236 122.545 506.317 124.368 501.582 128.014C496.895 131.613 493.367 136.513 491 142.716C488.68 148.871 487.52 155.784 487.52 163.455C487.52 171.22 488.704 178.275 491.071 184.619C493.486 190.917 497.037 195.936 501.724 199.676C506.459 203.369 512.33 205.216 519.338 205.216ZM668.841 173.398V108.909H685.602V218H668.841V199.534H667.705C665.148 205.074 661.17 209.785 655.773 213.668C650.375 217.503 643.557 219.42 635.318 219.42C628.5 219.42 622.439 217.929 617.136 214.946C611.833 211.916 607.667 207.37 604.636 201.31C601.606 195.202 600.091 187.508 600.091 178.227V108.909H616.852V177.091C616.852 185.045 619.078 191.39 623.528 196.125C628.027 200.86 633.756 203.227 640.716 203.227C644.883 203.227 649.12 202.162 653.429 200.031C657.785 197.901 661.431 194.634 664.366 190.23C667.349 185.827 668.841 180.216 668.841 173.398ZM841.941 123.469H810.833C810.265 119.444 809.105 115.869 807.353 112.744C805.601 109.572 803.352 106.873 800.606 104.648C797.86 102.422 794.687 100.718 791.089 99.5341C787.538 98.3504 783.679 97.7585 779.512 97.7585C771.984 97.7585 765.426 99.6288 759.839 103.369C754.252 107.062 749.919 112.46 746.842 119.562C743.764 126.617 742.225 135.187 742.225 145.273C742.225 155.642 743.764 164.354 746.842 171.409C749.967 178.464 754.323 183.791 759.91 187.389C765.497 190.988 771.96 192.787 779.299 192.787C783.418 192.787 787.23 192.242 790.734 191.153C794.285 190.064 797.433 188.478 800.18 186.395C802.926 184.264 805.199 181.684 806.998 178.653C808.844 175.623 810.123 172.167 810.833 168.284L841.941 168.426C841.136 175.102 839.124 181.542 835.904 187.744C832.732 193.9 828.447 199.416 823.049 204.293C817.699 209.122 811.307 212.957 803.873 215.798C796.487 218.592 788.129 219.989 778.802 219.989C765.828 219.989 754.228 217.053 744.001 211.182C733.821 205.311 725.772 196.812 719.853 185.685C713.982 174.558 711.046 161.087 711.046 145.273C711.046 129.411 714.029 115.917 719.995 104.79C725.961 93.6629 734.058 85.1875 744.285 79.3636C754.512 73.4924 766.018 70.5568 778.802 70.5568C787.23 70.5568 795.042 71.7405 802.239 74.108C809.484 76.4754 815.899 79.9318 821.487 84.4773C827.074 88.9754 831.619 94.4915 835.123 101.026C838.674 107.56 840.947 115.041 841.941 123.469ZM893.681 72.5455V218H863.425V72.5455H893.681ZM949.026 220.06C942.065 220.06 935.863 218.852 930.418 216.438C924.973 213.975 920.664 210.353 917.491 205.571C914.366 200.741 912.804 194.728 912.804 187.531C912.804 181.471 913.917 176.381 916.142 172.261C918.367 168.142 921.398 164.828 925.233 162.318C929.068 159.809 933.424 157.915 938.301 156.636C943.225 155.358 948.386 154.458 953.784 153.938C960.129 153.275 965.242 152.659 969.125 152.091C973.008 151.475 975.825 150.576 977.577 149.392C979.329 148.208 980.205 146.456 980.205 144.136V143.71C980.205 139.212 978.784 135.732 975.943 133.27C973.15 130.808 969.172 129.577 964.011 129.577C958.566 129.577 954.234 130.784 951.014 133.199C947.795 135.566 945.664 138.549 944.622 142.148L916.639 139.875C918.06 133.246 920.853 127.517 925.02 122.688C929.187 117.811 934.561 114.07 941.142 111.466C947.771 108.814 955.441 107.489 964.153 107.489C970.214 107.489 976.014 108.199 981.554 109.619C987.141 111.04 992.089 113.241 996.398 116.224C1000.75 119.207 1004.19 123.043 1006.7 127.73C1009.21 132.37 1010.46 137.934 1010.46 144.42V218H981.767V202.872H980.915C979.163 206.281 976.819 209.288 973.884 211.892C970.948 214.449 967.42 216.461 963.301 217.929C959.182 219.349 954.423 220.06 949.026 220.06ZM957.69 199.179C962.141 199.179 966.071 198.303 969.48 196.551C972.889 194.752 975.564 192.337 977.506 189.307C979.447 186.277 980.418 182.844 980.418 179.009V167.432C979.471 168.047 978.169 168.616 976.511 169.136C974.902 169.61 973.079 170.06 971.043 170.486C969.007 170.865 966.971 171.22 964.935 171.551C962.899 171.835 961.052 172.096 959.395 172.332C955.844 172.853 952.742 173.682 950.091 174.818C947.439 175.955 945.38 177.493 943.912 179.435C942.444 181.329 941.71 183.696 941.71 186.537C941.71 190.656 943.202 193.805 946.185 195.983C949.215 198.114 953.05 199.179 957.69 199.179ZM1124.7 140.017L1097 141.722C1096.53 139.354 1095.51 137.223 1093.95 135.33C1092.38 133.388 1090.33 131.849 1087.77 130.713C1085.26 129.529 1082.25 128.938 1078.75 128.938C1074.06 128.938 1070.11 129.932 1066.89 131.92C1063.67 133.862 1062.06 136.466 1062.06 139.733C1062.06 142.337 1063.1 144.539 1065.18 146.338C1067.27 148.137 1070.84 149.581 1075.91 150.67L1095.65 154.648C1106.26 156.826 1114.17 160.33 1119.37 165.159C1124.58 169.989 1127.19 176.333 1127.19 184.193C1127.19 191.343 1125.08 197.616 1120.87 203.014C1116.7 208.412 1110.97 212.626 1103.68 215.656C1096.43 218.639 1088.08 220.131 1078.61 220.131C1064.17 220.131 1052.66 217.124 1044.09 211.111C1035.57 205.05 1030.57 196.812 1029.1 186.395L1058.86 184.832C1059.76 189.236 1061.94 192.598 1065.4 194.918C1068.85 197.19 1073.28 198.327 1078.68 198.327C1083.98 198.327 1088.24 197.309 1091.46 195.273C1094.73 193.189 1096.39 190.514 1096.43 187.247C1096.39 184.501 1095.23 182.252 1092.95 180.5C1090.68 178.701 1087.18 177.328 1082.44 176.381L1063.55 172.616C1052.9 170.486 1044.97 166.793 1039.76 161.537C1034.6 156.281 1032.02 149.581 1032.02 141.438C1032.02 134.43 1033.91 128.393 1037.7 123.327C1041.53 118.26 1046.91 114.354 1053.82 111.608C1060.78 108.862 1068.92 107.489 1078.25 107.489C1092.03 107.489 1102.87 110.401 1110.78 116.224C1118.73 122.048 1123.37 129.979 1124.7 140.017ZM1237 140.017L1209.31 141.722C1208.83 139.354 1207.81 137.223 1206.25 135.33C1204.69 133.388 1202.63 131.849 1200.07 130.713C1197.56 129.529 1194.56 128.938 1191.05 128.938C1186.37 128.938 1182.41 129.932 1179.19 131.92C1175.97 133.862 1174.36 136.466 1174.36 139.733C1174.36 142.337 1175.4 144.539 1177.49 146.338C1179.57 148.137 1183.15 149.581 1188.21 150.67L1207.96 154.648C1218.56 156.826 1226.47 160.33 1231.68 165.159C1236.89 169.989 1239.49 176.333 1239.49 184.193C1239.49 191.343 1237.38 197.616 1233.17 203.014C1229 208.412 1223.27 212.626 1215.98 215.656C1208.74 218.639 1200.38 220.131 1190.91 220.131C1176.47 220.131 1164.96 217.124 1156.39 211.111C1147.87 205.05 1142.88 196.812 1141.41 186.395L1171.17 184.832C1172.07 189.236 1174.24 192.598 1177.7 194.918C1181.16 197.19 1185.58 198.327 1190.98 198.327C1196.29 198.327 1200.55 197.309 1203.77 195.273C1207.03 193.189 1208.69 190.514 1208.74 187.247C1208.69 184.501 1207.53 182.252 1205.26 180.5C1202.99 178.701 1199.48 177.328 1194.75 176.381L1175.85 172.616C1165.2 170.486 1157.27 166.793 1152.06 161.537C1146.9 156.281 1144.32 149.581 1144.32 141.438C1144.32 134.43 1146.21 128.393 1150 123.327C1153.84 118.26 1159.21 114.354 1166.12 111.608C1173.08 108.862 1181.23 107.489 1190.56 107.489C1204.33 107.489 1215.18 110.401 1223.08 116.224C1231.04 122.048 1235.68 129.979 1237 140.017Z" fill="#232323"/>
</svg>
